PathFileType	4	(X/Y/Z)	C:\Users\Kira\Nextcloud\Documents\MA\Daten\C3D\P01\post\Stand01\marker_experimental.trc																																																																																																																																																																																																																																																																																																																																																																																																																																																																																																																																																																																																																																																																																																																			
DataRate	CameraRate	NumFrames	NumMarkers	Units	OrigDataRate	OrigDataStartFrame	OrigNumFrames																																																																																																																																																																																																																																																																																																																																																																																																																																																																																																																																																																																																																																																																																																															
150	150	2	231	mm	150	37	150																																																																																																																																																																																																																																																																																																																																																																																																																																																																																																																																																																																																																																																																																																															
Frame#	Time	LFHD			LBHD			RFHD			RBHD			C7			T10			CLAV			STRN			RBAK			LSHO			LUPA			LELB			LFRA			LWRB			LWRA			LFIN			RSHO			RUPA			RELB			RFRA			RWRB			RWRA			RFIN			SACR			LASI			RASI			LT1			LT2			LT3			LS1			LS2			LS3			LHEE			LTOE			RT1			RT2			RT3			RS1			RS2			RS3			RHEE			RTOE			PELO			PELA			PELL			PELP			SACO			SACA			SACL			SACP			LFEO			LFEA			LFEL			LFEP			RFEO			RFEA			RFEL			RFEP			LTIO			LTIA			LTIL			LTIP			RTIO			RTIA			RTIL			RTIP			LFOO			LFOA			LFOL			LFOP			RFOO			RFOA			RFOL			RFOP			LTOO			LTOA			LTOL			LTOP			RTOO			RTOA			RTOL			RTOP			HEDO			HEDA			HEDL			HEDP			LCLO			LCLA			LCLL			LCLP			RCLO			RCLA			RCLL			RCLP			TRXO			TRXA			TRXL			TRXP			LHUO			LHUA			LHUL			LHUP			LRAO			LRAA			LRAL			LRAP			LHNO			LHNA			LHNL			LHNP			RHUO			RHUA			RHUL			RHUP			RRAO			RRAA			RRAL			RRAP			RHNO			RHNA			RHNL			RHNP			LPelvisAngles			RPelvisAngles			LFootProgressAngles			RFootProgressAngles			LHipAngles			RHipAngles			LKneeAngles			RKneeAngles			LAnkleAngles			RAnkleAngles			LFFootAngles			RFFootAngles			LAbsAnkleAngle			RAbsAnkleAngle			RNeckAngles			LNeckAngles			RSpineAngles			LSpineAngles			LShoulderAngles			LElbowAngles			LWristAngles			RShoulderAngles			RElbowAngles			RWristAngles			RThoraxAngles			LThoraxAngles			RHeadAngles			LHeadAngles			LHipPower			LKneePower			LAnklePower			RHipPower			RKneePower			RAnklePower			LWaistPower			RWaistPower			LNeckPower			RNeckPower			LShoulderPower			RShoulderPower			LElbowPower			RElbowPower			LWristPower			RWristPower			F_ForcePlate1			F_ForcePlate2			F_ForcePlate3			LGRF			RGRF			LHipForce			RHipForce			LKneeForce			RKneeForce			LAnkleForce			RAnkleForce			LWaistForce			RWaistForce			LNeckForce			RNeckForce			LShoulderForce			RShoulderForce			LElbowForce			RElbowForce			LWristForce			RWristForce			LNormalisedGRF			RNormalisedGRF			LGroundReactionForce			RGroundReactionForce			LHipMoment			RHipMoment			LKneeMoment			RKneeMoment			LAnkleMoment			RAnkleMoment			LWaistMoment			RWaistMoment			LNeckMoment			RNeckMoment			LShoulderMoment			RShoulderMoment			LElbowMoment			RElbowMoment			LWristMoment			RWristMoment			LKNE			RKNE			LANK			RANK			LKJC			RKJC			LAJC			RAJC			LTHI			RTHI			LTIB			RTIB			P_ForcePlate1			P_ForcePlate2			P_ForcePlate3			CentreOfMass			CentreOfMassFloor			funktRKJC			funktLKJC			funktRHIP			funktLHIP			LHJC			RHJC			LHF		
		X1	Y1	Z1	X2	Y2	Z2	X3	Y3	Z3	X4	Y4	Z4	X5	Y5	Z5	X6	Y6	Z6	X7	Y7	Z7	X8	Y8	Z8	X9	Y9	Z9	X10	Y10	Z10	X11	Y11	Z11	X12	Y12	Z12	X13	Y13	Z13	X14	Y14	Z14	X15	Y15	Z15	X16	Y16	Z16	X17	Y17	Z17	X18	Y18	Z18	X19	Y19	Z19	X20	Y20	Z20	X21	Y21	Z21	X22	Y22	Z22	X23	Y23	Z23	X24	Y24	Z24	X25	Y25	Z25	X26	Y26	Z26	X27	Y27	Z27	X28	Y28	Z28	X29	Y29	Z29	X30	Y30	Z30	X31	Y31	Z31	X32	Y32	Z32	X33	Y33	Z33	X34	Y34	Z34	X35	Y35	Z35	X36	Y36	Z36	X37	Y37	Z37	X38	Y38	Z38	X39	Y39	Z39	X40	Y40	Z40	X41	Y41	Z41	X42	Y42	Z42	X43	Y43	Z43	X44	Y44	Z44	X45	Y45	Z45	X46	Y46	Z46	X47	Y47	Z47	X48	Y48	Z48	X49	Y49	Z49	X50	Y50	Z50	X51	Y51	Z51	X52	Y52	Z52	X53	Y53	Z53	X54	Y54	Z54	X55	Y55	Z55	X56	Y56	Z56	X57	Y57	Z57	X58	Y58	Z58	X59	Y59	Z59	X60	Y60	Z60	X61	Y61	Z61	X62	Y62	Z62	X63	Y63	Z63	X64	Y64	Z64	X65	Y65	Z65	X66	Y66	Z66	X67	Y67	Z67	X68	Y68	Z68	X69	Y69	Z69	X70	Y70	Z70	X71	Y71	Z71	X72	Y72	Z72	X73	Y73	Z73	X74	Y74	Z74	X75	Y75	Z75	X76	Y76	Z76	X77	Y77	Z77	X78	Y78	Z78	X79	Y79	Z79	X80	Y80	Z80	X81	Y81	Z81	X82	Y82	Z82	X83	Y83	Z83	X84	Y84	Z84	X85	Y85	Z85	X86	Y86	Z86	X87	Y87	Z87	X88	Y88	Z88	X89	Y89	Z89	X90	Y90	Z90	X91	Y91	Z91	X92	Y92	Z92	X93	Y93	Z93	X94	Y94	Z94	X95	Y95	Z95	X96	Y96	Z96	X97	Y97	Z97	X98	Y98	Z98	X99	Y99	Z99	X100	Y100	Z100	X101	Y101	Z101	X102	Y102	Z102	X103	Y103	Z103	X104	Y104	Z104	X105	Y105	Z105	X106	Y106	Z106	X107	Y107	Z107	X108	Y108	Z108	X109	Y109	Z109	X110	Y110	Z110	X111	Y111	Z111	X112	Y112	Z112	X113	Y113	Z113	X114	Y114	Z114	X115	Y115	Z115	X116	Y116	Z116	X117	Y117	Z117	X118	Y118	Z118	X119	Y119	Z119	X120	Y120	Z120	X121	Y121	Z121	X122	Y122	Z122	X123	Y123	Z123	X124	Y124	Z124	X125	Y125	Z125	X126	Y126	Z126	X127	Y127	Z127	X128	Y128	Z128	X129	Y129	Z129	X130	Y130	Z130	X131	Y131	Z131	X132	Y132	Z132	X133	Y133	Z133	X134	Y134	Z134	X135	Y135	Z135	X136	Y136	Z136	X137	Y137	Z137	X138	Y138	Z138	X139	Y139	Z139	X140	Y140	Z140	X141	Y141	Z141	X142	Y142	Z142	X143	Y143	Z143	X144	Y144	Z144	X145	Y145	Z145	X146	Y146	Z146	X147	Y147	Z147	X148	Y148	Z148	X149	Y149	Z149	X150	Y150	Z150	X151	Y151	Z151	X152	Y152	Z152	X153	Y153	Z153	X154	Y154	Z154	X155	Y155	Z155	X156	Y156	Z156	X157	Y157	Z157	X158	Y158	Z158	X159	Y159	Z159	X160	Y160	Z160	X161	Y161	Z161	X162	Y162	Z162	X163	Y163	Z163	X164	Y164	Z164	X165	Y165	Z165	X166	Y166	Z166	X167	Y167	Z167	X168	Y168	Z168	X169	Y169	Z169	X170	Y170	Z170	X171	Y171	Z171	X172	Y172	Z172	X173	Y173	Z173	X174	Y174	Z174	X175	Y175	Z175	X176	Y176	Z176	X177	Y177	Z177	X178	Y178	Z178	X179	Y179	Z179	X180	Y180	Z180	X181	Y181	Z181	X182	Y182	Z182	X183	Y183	Z183	X184	Y184	Z184	X185	Y185	Z185	X186	Y186	Z186	X187	Y187	Z187	X188	Y188	Z188	X189	Y189	Z189	X190	Y190	Z190	X191	Y191	Z191	X192	Y192	Z192	X193	Y193	Z193	X194	Y194	Z194	X195	Y195	Z195	X196	Y196	Z196	X197	Y197	Z197	X198	Y198	Z198	X199	Y199	Z199	X200	Y200	Z200	X201	Y201	Z201	X202	Y202	Z202	X203	Y203	Z203	X204	Y204	Z204	X205	Y205	Z205	X206	Y206	Z206	X207	Y207	Z207	X208	Y208	Z208	X209	Y209	Z209	X210	Y210	Z210	X211	Y211	Z211	X212	Y212	Z212	X213	Y213	Z213	X214	Y214	Z214	X215	Y215	Z215	X216	Y216	Z216	X217	Y217	Z217	X218	Y218	Z218	X219	Y219	Z219	X220	Y220	Z220	X221	Y221	Z221	X222	Y222	Z222	X223	Y223	Z223	X224	Y224	Z224	X225	Y225	Z225	X226	Y226	Z226	X227	Y227	Z227	X228	Y228	Z228	X229	Y229	Z229	X230	Y230	Z230	X231	Y231	Z231
																																																																																																																																																																																																																																																																																																																																																																																																																																																																																																																																																																																																																																																																																																																						
38	0.246666667	-334.6574097	1545.73877	1296.735718	-332.554718	1521.530884	1157.458618	-461.2892456	1543.285889	1303.704956	-483.4741516	1518.604004	1177.882446	-400.1761475	1406.568726	1146.781616	-392.9849854	1226.266846	1083.782715	-406.8703613	1338.856445	1264.054199	-408.0458679	1302.488403	1284.586548	-507.4914246	1268.153076	1073.79541	-254.0448608	1379.901367	1180.647583	-145.8783112	1189.304443	1151.340698	-88.58675385	1113.688477	1171.869263	-42.40345383	1070.387573	1193.19165	46.96503067	939.56427	1269.661865	20.32877159	947.6588135	1333.604248	75.7410965	898.7539063	1351.379395	-554.4776611	1368.204956	1172.629639	-622.4979248	1282.251587	1153.09436	-694.3683472	1093.510986	1141.876099	-818.3149414	953.0314331	1196.708618	-843.9070435	910.8034058	1214.680298	-843.9367676	936.2931519	1280.379272	-902.6137085	884.7738037	1289.12207	-393.6871948	971.5425415	1078.846313	-254.2454529	934.5656738	1265.5	-540.4047852	934.4022827	1256.663818	-206.1756134	643.8353882	1235.858154	-191.0326385	553.3712158	1154.873169	-235.287796	567.3892212	1290.476685	-202.8423309	258.3299866	1178.390503	-188.0450134	179.500885	1086.449097	-227.5549316	178.6842346	1223.074585	-275.4518738	39.30139542	1091.286621	-226.2806549	38.90852737	1252.077637	-583.5664673	661.1376953	1195.307739	-555.0969238	589.4724121	1098.257935	-582.5091553	572.4407349	1238.362427	-577.0940552	267.6074829	1153.068237	-555.2572021	202.6932068	1053.015625	-571.2243652	182.5135498	1192.915894	-495.2574158	41.18267059	1085.10083	-539.7651367	39.95059967	1246.207397	-395.2348328	848.8572998	1195.943115	-395.6901855	845.8457642	1210.746948	-382.6459351	848.8644409	1196.331787	-396.0795288	972.2807617	1221.025024	-393.5301208	959.5800171	1137.716797	-393.7199097	958.3251953	1143.885132	-387.2356567	959.5836182	1137.911255	-393.9526978	1021.291809	1150.257568	-281.5879211	469.8380432	1217.356323	-274.7861938	472.6714783	1254.939453	-244.2407837	474.4691467	1210.248169	-332.292572	848.9562378	1197.950562	-498.5170593	474.1182251	1205.085938	-505.6764526	475.9892578	1242.049561	-461.726593	470.3744812	1212.401245	-458.1770935	848.7583008	1193.935669	-266.3485718	45.42023087	1149.458374	-248.3274231	40.70907974	1182.95166	-231.4263	49.58642578	1131.254395	-280.3808289	436.2209167	1211.978271	-505.3923035	50.48547745	1141.85498	-521.0359497	45.38848495	1177.70459	-469.1876221	47.60103607	1157.243408	-499.061615	440.5632324	1200.077637	-227.0158081	49.24441147	1252.783813	-227.9624481	62.55370712	1253.693237	-214.2638092	50.41495514	1248.926758	-266.196228	55.18550873	1125.051147	-539.4155273	50.11497116	1247.15271	-538.9623413	63.29205322	1248.378174	-526.637146	49.36029816	1250.54187	-504.9908447	60.78100204	1119.734253	-214.1524048	47.64041138	1294.825073	-214.4513397	51.84334564	1295.112305	-210.1254578	48.01006317	1293.607056	-226.525116	49.51678085	1254.488525	-550.727478	46.95311356	1289.098877	-550.5844116	51.1143074	1289.485962	-546.6921997	46.7148056	1290.169189	-539.8564453	50.32178497	1248.861694	-409.5829468	1443.57373	1126.254028	-392.8029785	1484.42395	1347.759888	-184.4941254	1448.702637	1108.256714	-417.8678589	1665.655151	1085.925293	-257.7109375	1333.12207	1177.953125	-179.2414246	1318.415039	1326.52063	-244.5552368	1500.989624	1187.622192	-406.4238892	1340.212036	1257.201294	-546.7664795	1321.920532	1169.930054	-631.6584473	1299.541138	1311.137085	-519.4863892	1158.178467	1160.379639	-406.4238586	1340.212036	1257.201294	-406.4238586	1340.212036	1257.201294	-417.1058655	1307.781982	1421.150146	-573.4871826	1337.800537	1245.839355	-401.862793	1175.933228	1225.003174	-120.6314087	1095.279419	1170.067383	-208.3251343	1053.253174	913.2294312	-341.8578186	964.5630493	1266.991089	-257.7109375	1333.12207	1177.953125	29.31418419	938.2296143	1300.509521	35.50812531	791.293457	1116.481201	-160.450119	826.1032715	1383.649048	-110.135231	1084.285889	1179.198242	94.91592407	833.3198853	1392.027222	207.0068817	933.1233521	1426.086182	177.4820862	781.1821899	1273.074951	29.31421661	938.2296143	1300.509521	-662.383728	1077.643555	1151.582153	-501.4634399	1017.203796	942.2332764	-847.0795898	1177.898315	980.6680298	-546.7665405	1321.920532	1169.930054	-839.0157471	918.894104	1249.337769	-779.5100708	753.2593994	1087.875854	-1001.868042	1007.291992	1098.637207	-674.7479248	1066.531006	1158.425049	-936.4267578	826.7932129	1336.940674	-1059.744995	922.0249634	1299.937012	-905.6136475	916.7603149	1465.790161	-839.015686	918.894165	1249.337769	-0.384388238	1.726694703	-11.48714066	0.384388238	-1.726694703	-11.48714066	-4.245515823	-17.03540993	-2.662934065	-2.031257391	-15.06830597	-4.785079479	7.661988258	-12.1055975	-14.18610859	6.120172501	-9.233194351	-13.38772774	-3.180049658	-16.37437057	-12.82527447	-3.089931965	-11.42830372	-11.01381779	0.642490149	10.68215561	-5.639395237	0.30385229	8.20259285	-3.371194839	-4.97E-16	-7.95E-16	7.95E-16	-1.14E-15	7.00E-32	-7.00E-32	5.67E-16	0	-9.25829792	5.32E-16	0	-8.690973282	1.156678677	-8.395231247	21.34751129	-1.156678677	8.395231247	21.34751129	-1.199254394	1.921681643	0.322134286	1.199254394	-1.921681643	0.322134286	-29.10110092	-29.46747208	-6.186262131	5.62E-16	-7.72E-12	-35.15144348	11.0085144	123.634552	-1.64321363	-26.58380318	-40.6853981	-7.790204525	-4.26E-15	2.15E-12	-34.39089203	8.236810684	115.8124313	-7.110784531	1.560680985	-3.658502579	-11.08920383	-1.560680985	3.658502579	-11.08920383	2.102109194	4.263379097	-10.29243279	-2.102109194	-4.263379097	-10.29243279	2.02E-20	0.00033057	1.24E-36	-1.24E-20	-0.000202733	-7.60E-37	1.21E-21	1.97E-05	7.39E-38	-1.36E-20	-0.000221857	-8.32E-37	-3.12E-21	-5.09E-05	-1.91E-37	4.48E-22	7.32E-06	2.74E-38	2.63E-20	0.000428915	1.61E-36	2.63E-20	0.000428915	1.61E-36	6.18E-20	0.001009829	3.79E-36	6.18E-20	0.001009829	3.79E-36	-1.20E-20	-0.000195827	-7.34E-37	1.67E-20	0.0002728	1.02E-36	8.65E-22	1.41E-05	5.30E-38	-3.15E-21	-5.14E-05	-1.93E-37	-1.08E-21	-1.76E-05	-6.59E-38	1.34E-21	2.19E-05	8.23E-38	-398.0210266	1.304700017	259.0899963	-231.4150085	1.697000027	-251.3170013	-396.9869995	4.582600117	-949.9620361	0	0	0	0	0	0	-0.19146964	1.563553333	-0.116653927	0.15659225	1.569625139	-0.077990077	-0.063021787	0.590543449	0.073475465	0.043748438	0.591736257	0.077389337	-0.012456376	-0.006307628	0.141555414	0.008108106	-0.011458034	0.141551197	-0.003741231	4.460430622	0.908710778	-0.003741231	4.460430622	0.908710778	-0.131277576	8.844927788	1.75042212	-0.131277576	8.844927788	1.75042212	0.233922437	0.424987972	0.074737988	-0.181260198	0.442204237	0.109262183	0.103016295	0.133939743	0.13460876	-0.079417326	0.133330658	0.149689421	0.019890144	0.040178116	-0.038271185	-0.033223849	0.033766747	-0.034804869	0	0	0	0	0	0	0	0	0	0	0	0	-58.76696777	-2.543003798	15.085742	-46.0545845	-1.6727072	6.210758686	-15.02723789	0.794725835	10.07231998	-10.35460567	0.539805114	11.01276302	-1.302669168	0.726275682	7.593821526	-0.935288608	0.508951426	7.563557148	-14.32181263	-2.852007866	-68.60334778	14.32181263	2.852007866	-68.60334778	-77.87711334	-29.40269089	930.0871582	77.87711334	29.40269089	930.0871582	-57.20116806	-9.871282578	36.19688797	-43.83500671	-7.680483341	45.51436234	-16.49777985	-0.456021041	22.13402748	-12.8439312	-0.51595813	25.24510193	-1.160632491	1.48E-15	-2.237702131	-2.022566319	7.47E-16	-2.112228155	-226.8485413	480.04776	1206.679932	-552.4485474	482.2611389	1194.227783	-230.5153503	46.44413757	1130.322266	-541.697937	47.02521133	1125.520386	-281.5879211	469.8380127	1217.356323	-498.5170593	474.1182251	1205.085815	-266.4994507	49.62238693	1150.130615	-505.3242493	54.67986298	1142.480957	-194.8988037	673.2904663	1186.328979	-588.7183838	672.6694946	1177.564453	-168.5979004	253.3190918	1126.106201	-610.8411255	254.1776276	1124.800781	-398.0210266	1.304700017	259.0899963	-231.4150085	1.697000027	-251.3170013	-396.9869995	4.582600117	-949.9620361	-397.9277344	934.3633423	1234.834106	-397.9277344	2.44E-14	1234.834106	0	0	0	0	0	0	0	0	0	0	0	0	-332.2925415	848.9562988	1197.950562	-458.177124	848.7582397	1193.935669	-0.191469654	1.563553333	-0.116653927
39	0.253333333	-334.6468506	1545.733154	1296.787109	-332.5597534	1521.53064	1157.509521	-461.2805786	1543.278564	1303.775146	-483.4775391	1518.599854	1177.951172	-400.1788025	1406.564209	1146.839844	-392.9901733	1226.263794	1083.836548	-406.8616638	1338.849854	1264.112671	-408.0349426	1302.481201	1284.6427	-507.4994812	1268.146484	1073.86499	-254.0441132	1379.896851	1180.688354	-145.8822937	1189.298584	1151.370361	-88.58857727	1113.682251	1171.892944	-42.40385818	1070.380737	1193.210571	46.97012711	939.5567627	1269.673706	20.33929443	947.6509399	1333.618774	75.74980927	898.7435303	1351.387573	-554.4766846	1368.197998	1172.69751	-622.4973755	1282.244751	1153.16394	-694.3670044	1093.505859	1141.94519	-818.3136597	953.0298462	1196.775757	-843.9077148	910.8016357	1214.748901	-843.9348755	936.289856	1280.445068	-902.614563	884.7753906	1289.192017	-393.6884155	971.5479736	1078.910278	-254.2510071	934.5531006	1265.562866	-540.4135742	934.3979492	1256.716309	-206.1862488	643.8302612	1235.909668	-191.0370026	553.3724365	1154.907837	-235.2985535	567.3781128	1290.511841	-202.8456268	258.3297729	1178.402588	-188.0471191	179.5066833	1086.457275	-227.5588989	178.6806793	1223.082153	-275.4533691	39.30360413	1091.284302	-226.2812653	38.9082756	1252.07666	-583.5731201	661.1358643	1195.338135	-555.0975952	589.4780273	1098.28479	-582.5177002	572.4351196	1238.387695	-577.0947876	267.6083374	1153.074219	-555.2546387	202.6994476	1053.022705	-571.225769	182.5120392	1192.920654	-495.2565308	41.18619156	1085.101074	-539.7681885	39.94850159	1246.20813	-395.2419128	848.8540039	1195.994019	-395.6979065	845.8413086	1210.797485	-382.6530151	848.8608398	1196.383179	-396.0845947	972.2753906	1221.085815	-393.532196	959.5813599	1137.776733	-393.7221985	958.3261108	1143.944824	-387.2377625	959.5847778	1137.971313	-393.9535217	1021.292114	1150.32251	-281.5923157	469.834198	1217.370361	-274.793457	472.6634521	1254.953979	-244.2449646	474.4664917	1210.265503	-332.2995911	848.9512939	1198.003662	-498.5230713	474.1163025	1205.109009	-505.6846313	475.9850159	1242.072388	-461.7330627	470.3722534	1212.42627	-458.1840515	848.7567139	1193.984253	-266.3515625	45.42157364	1149.458496	-248.3308563	40.70934296	1182.95166	-231.4293671	49.58842468	1131.255127	-280.3851929	436.2174377	1211.991089	-505.3913574	50.48690414	1141.860596	-521.0359497	45.38825607	1177.709473	-469.1871643	47.6022644	1157.25	-499.0670776	440.5614014	1200.099365	-227.0165253	49.24413681	1252.783081	-227.9633331	62.55339813	1253.692749	-214.2646484	50.41493225	1248.925781	-266.1997681	55.18710709	1125.05127	-539.4187012	50.11284256	1247.153809	-538.9656372	63.28988647	1248.379761	-526.6405029	49.35814285	1250.543579	-504.9879761	60.78357697	1119.737305	-214.1521454	47.63944626	1294.824097	-214.4511108	51.84237289	1295.111328	-210.1252289	48.00914764	1293.605957	-226.5260162	49.51597977	1254.487671	-550.732605	46.94942856	1289.099365	-550.5895386	51.11060333	1289.486572	-546.6973877	46.71109009	1290.1698	-539.8598022	50.31947708	1248.862549	-409.5899048	1443.573242	1126.312378	-392.7871094	1484.415894	1347.817993	-184.5031281	1448.707397	1108.29126	-417.8836975	1665.655884	1085.992432	-257.7105103	1333.117676	1177.993042	-179.2227173	1318.406494	1326.552612	-244.5534058	1500.986694	1187.665161	-406.4157715	1340.205566	1257.259766	-546.7648315	1321.913818	1169.996216	-631.6481323	1299.528809	1311.209229	-519.4821777	1158.171021	1160.439453	-406.4157715	1340.205566	1257.259766	-406.4157715	1340.205566	1257.259766	-417.0831909	1307.770508	1421.210205	-573.4816895	1337.79187	1245.912109	-401.85495	1175.926147	1225.056274	-120.6335526	1095.273438	1170.09375	-208.3496704	1053.249878	913.2625732	-341.8532715	964.5581055	1267.035522	-257.7104797	1333.117676	1177.993042	29.3218689	938.2219238	1300.522949	35.49940872	791.2863159	1116.49353	-160.4365692	826.0965576	1383.677979	-110.136673	1084.279907	1179.223755	94.92384338	833.3083496	1392.031128	207.0205994	933.1030884	1426.083252	177.4762878	781.1702881	1273.073364	29.32175446	938.2219849	1300.522949	-662.3825073	1077.638428	1151.651733	-501.4594727	1017.193298	942.3084717	-847.0734863	1177.889893	980.732666	-546.7648315	1321.913818	1169.996216	-839.0152588	918.8914185	1249.404785	-779.5059814	753.2557373	1087.947998	-1001.862854	1007.286072	1098.700317	-674.7468262	1066.526123	1158.494385	-936.4302368	826.7974243	1337.013062	-1059.744629	922.0374756	1300.011719	-905.6066895	916.7653809	1465.86145	-839.0152588	918.8914185	1249.404785	-0.383319408	1.729007006	-11.49172688	0.383319408	-1.729007006	-11.49172688	-4.246184349	-17.03676033	-2.663892984	-2.030589104	-15.0710001	-4.787270069	7.664027214	-12.10330105	-14.1845026	6.118431568	-9.234449387	-13.38860321	-3.182067633	-16.37831116	-12.82122517	-3.090384722	-11.42680168	-11.01268482	0.642385662	10.68020916	-5.640154362	0.30382061	8.201528549	-3.371535778	8.70E-15	-5.33E-31	1.19E-15	-3.88E-15	3.98E-16	-2.37E-31	5.67E-16	0	-9.258925438	5.32E-16	0	-8.69162178	1.156571031	-8.396437645	21.34706879	-1.156571031	8.396437645	21.34706879	-1.200390577	1.914226651	0.325006962	1.200390577	-1.914226651	0.325006962	-29.09986305	-29.46778297	-6.187529564	3.74E-15	6.42E-12	-35.15171814	11.01078606	123.6340179	-1.641449571	-26.5845871	-40.69232559	-7.790231228	-2.67E-15	-4.49E-12	-34.3902092	8.236911774	115.8158951	-7.113930702	1.560598612	-3.653437138	-11.09095669	-1.560598612	3.653437138	-11.09095669	2.104384899	4.269227982	-10.29018497	-2.104384899	-4.269227982	-10.29018497	1.99E-20	0.000324401	1.22E-36	-1.22E-20	-0.000200045	-7.50E-37	1.22E-21	1.99E-05	7.45E-38	-1.33E-20	-0.000216478	-8.12E-37	-3.12E-21	-5.09E-05	-1.91E-37	4.76E-22	7.78E-06	2.92E-38	2.64E-20	0.000431404	1.62E-36	2.64E-20	0.000431404	1.62E-36	6.68E-20	0.001090772	4.09E-36	6.68E-20	0.001090772	4.09E-36	-1.17E-20	-0.000191758	-7.19E-37	1.58E-20	0.00025729	9.65E-37	8.66E-22	1.41E-05	5.30E-38	-2.53E-21	-4.13E-05	-1.55E-37	-1.04E-21	-1.70E-05	-6.39E-38	1.37E-21	2.24E-05	8.41E-38	-398.0210266	1.304700017	259.0899963	-231.4150085	1.697000027	-251.3170013	-396.9869995	4.582600117	-949.9620361	0	0	0	0	0	0	-0.191522121	1.563557625	-0.116485097	0.156604081	1.569629669	-0.077884421	-0.063031279	0.590538919	0.073490433	0.043751873	0.5917328	0.077417113	-0.012458789	-0.006309554	0.141554907	0.008108395	-0.011463313	0.14155075	-0.00360973	4.460357666	0.909065545	-0.00360973	4.460357666	0.909065545	-0.131399214	8.844872475	1.750684023	-0.131399214	8.844872475	1.750684023	0.233920038	0.424989998	0.074733078	-0.181257904	0.442203224	0.109269373	0.103015058	0.133941069	0.134608179	-0.079417884	0.13333115	0.149688378	0.019890828	0.040180344	-0.03826832	-0.033221763	0.033765081	-0.03480785	0	0	0	0	0	0	0	0	0	0	0	0	-58.77973557	-2.542836666	15.03926849	-46.05736923	-1.672959924	6.178410053	-15.02975273	0.794885278	10.07593727	-10.35547352	0.539841294	11.01945591	-1.302697659	0.726421654	7.593764305	-0.935263932	0.508983672	7.563248158	-14.31506634	-2.853642225	-68.70880127	14.31506634	2.853642225	-68.70880127	-77.84858704	-29.40767097	929.94104	77.84858704	29.40767097	929.94104	-57.2000618	-9.871212006	36.19602585	-43.83510971	-7.680663586	45.51451492	-16.49751091	-0.456045002	22.13378906	-12.84436893	-0.516025543	25.24439621	-1.160682082	-2.14E-16	-2.237469435	-2.022435904	-1.90E-15	-2.112407446	-226.8526001	480.0475769	1206.699097	-552.4540405	482.259613	1194.248413	-230.5181274	46.44646835	1130.322754	-541.6964111	47.02662277	1125.52478	-281.5923157	469.8341675	1217.370361	-498.5230713	474.1163025	1205.109131	-266.5024719	49.62368011	1150.130859	-505.3234253	54.68125534	1142.486816	-194.904007	673.2896729	1186.372559	-588.7236328	672.6686401	1177.594849	-168.6017609	253.3200073	1126.114624	-610.8418579	254.1781006	1124.811768	-398.0210266	1.304700017	259.0899963	-231.4150085	1.697000027	-251.3170013	-396.9869995	4.582600117	-949.9620361	-397.9261475	934.3585815	1234.876465	-397.9261475	2.44E-14	1234.876465	0	0	0	0	0	0	0	0	0	0	0	0	-332.2997131	848.9512329	1198.003662	-458.1841125	848.7567749	1193.984253	-0.191522121	1.563557625	-0.116485089
